<?xml version="1.0" encoding="UTF-8" standalone="no"?>
<svg
   xmlns:dc="http://purl.org/dc/elements/1.1/"
   xmlns:cc="http://creativecommons.org/ns#"
   xmlns:rdf="http://www.w3.org/1999/02/22-rdf-syntax-ns#"
   xmlns:svg="http://www.w3.org/2000/svg"
   xmlns="http://www.w3.org/2000/svg"
   xmlns:sodipodi="http://sodipodi.sourceforge.net/DTD/sodipodi-0.dtd"
   xmlns:inkscape="http://www.inkscape.org/namespaces/inkscape"
   version="1.1"
   id="Layer_1"
   x="0px"
   y="0px"
   viewBox="0 0 248.69 248.69"
   style="enable-background:new 0 0 248.69 248.69;"
   xml:space="preserve"
   sodipodi:docname="qopencpn.svg"
   inkscape:version="1.0.2 (e86c870879, 2021-01-15)"><metadata
   id="metadata55"><rdf:RDF><cc:Work
       rdf:about=""><dc:format>image/svg+xml</dc:format><dc:type
         rdf:resource="http://purl.org/dc/dcmitype/StillImage" /></cc:Work></rdf:RDF></metadata><defs
   id="defs53" /><sodipodi:namedview
   pagecolor="#ffffff"
   bordercolor="#666666"
   borderopacity="1"
   objecttolerance="10"
   gridtolerance="10"
   guidetolerance="10"
   inkscape:pageopacity="0"
   inkscape:pageshadow="2"
   inkscape:window-width="1698"
   inkscape:window-height="990"
   id="namedview51"
   showgrid="false"
   inkscape:zoom="3.4420362"
   inkscape:cx="122.74711"
   inkscape:cy="87.831971"
   inkscape:window-x="0"
   inkscape:window-y="0"
   inkscape:window-maximized="0"
   inkscape:current-layer="Layer_1" />

<g
   id="g20">
</g>
<g
   id="g22">
</g>
<g
   id="g24">
</g>
<g
   id="g26">
</g>
<g
   id="g28">
</g>
<g
   id="g30">
</g>
<g
   id="g32">
</g>
<g
   id="g34">
</g>
<g
   id="g36">
</g>
<g
   id="g38">
</g>
<g
   id="g40">
</g>
<g
   id="g42">
</g>
<g
   id="g44">
</g>
<g
   id="g46">
</g>
<g
   id="g48">
</g>
<rect
   style="opacity:1;fill:#ffffff;fill-opacity:1;fill-rule:evenodd;stroke:#000000;stroke-width:2.68018px;stroke-linecap:butt;stroke-linejoin:miter;stroke-opacity:1"
   id="rect932"
   width="248.57849"
   height="254.14609"
   x="-0.87551326"
   y="1.7676148"
   transform="matrix(0.9999962,-0.00275712,0.0027408,0.99999624,0,0)"
   ry="41.418087" /><g
   id="g18"
   transform="translate(1.5745373,4.1211322)"><g
     id="g16"><g
       id="g14"><path
         d="m 52.889,225.07 c -0.312,0 -0.568,0.252 -0.568,0.568 0,2.416 -2.632,4.384 -5.872,4.384 -3.24,0 -5.872,-1.964 -5.872,-4.384 0,-0.312 -0.252,-0.568 -0.568,-0.568 -0.316,0 -0.568,0.252 -0.568,0.568 0,2.416 -2.632,4.384 -5.872,4.384 -3.24,0 -5.872,-1.964 -5.872,-4.384 0,-0.312 -0.252,-0.568 -0.568,-0.568 -0.316,0 -0.568,0.252 -0.568,0.568 0,3.044 3.14,5.516 7.004,5.516 2.884,0 5.364,-1.38 6.436,-3.348 1.072,1.968 3.552,3.348 6.436,3.348 3.864,0 7.004,-2.472 7.004,-5.516 0.016,-0.316 -0.24,-0.568 -0.552,-0.568 z"
         id="path2" /><path
         d="m 90.053,241.258 c -0.312,0 -0.568,0.252 -0.568,0.568 0,2.416 -2.632,4.384 -5.872,4.384 -3.24,0 -5.872,-1.964 -5.872,-4.384 0,-0.312 -0.252,-0.568 -0.568,-0.568 -0.316,0 -0.568,0.252 -0.568,0.568 0,2.416 -2.632,4.384 -5.868,4.384 -3.24,0 -5.872,-1.964 -5.872,-4.384 0,-0.312 -0.252,-0.568 -0.568,-0.568 -0.316,0 -0.568,0.252 -0.568,0.568 0,3.044 3.14,5.516 7.004,5.516 2.884,0 5.364,-1.38 6.432,-3.348 1.072,1.968 3.552,3.348 6.436,3.348 3.864,0 7.004,-2.472 7.004,-5.516 0.016,-0.316 -0.24,-0.568 -0.552,-0.568 z"
         id="path4" /><path
         d="m 127.693,222.594 c -0.312,0 -0.568,0.252 -0.568,0.568 0,2.416 -2.632,4.384 -5.872,4.384 -3.24,0 -5.872,-1.964 -5.872,-4.384 0,-0.312 -0.252,-0.568 -0.568,-0.568 -0.316,0 -0.568,0.252 -0.568,0.568 0,2.416 -2.632,4.384 -5.872,4.384 -3.24,0 -5.872,-1.964 -5.872,-4.384 0,-0.312 -0.252,-0.568 -0.568,-0.568 -0.316,0 -0.568,0.252 -0.568,0.568 0,3.044 3.14,5.516 7.004,5.516 2.884,0 5.364,-1.38 6.436,-3.348 1.072,1.968 3.552,3.348 6.436,3.348 3.864,0 7.004,-2.472 7.004,-5.516 0.016,-0.316 -0.24,-0.568 -0.552,-0.568 z"
         id="path6" /><path
         d="m 164.201,200.054 c 0.164,3.012 2.444,5.596 5.804,7.012 l -9.144,-39.8 -78.8,-12.164 -22.528,38.248 c -0.048,0.084 -4.024,6.976 -6.54,13.476 3.144,-1.516 5.236,-4.128 5.236,-7.108 0,-0.78 0.636,-1.416 1.416,-1.416 0.096,0 0.18,0.04 0.268,0.056 0.092,-0.02 0.172,-0.056 0.268,-0.056 0.78,0 1.416,0.636 1.416,1.416 0,4.68 5.14,8.484 11.456,8.484 6.316,0 11.456,-3.804 11.456,-8.484 0,-0.78 0.636,-1.416 1.416,-1.416 0.78,0 1.416,0.636 1.416,1.416 0,4.68 5.14,8.484 11.456,8.484 5.744,0 10.468,-3.156 11.288,-7.244 -0.06,-0.412 -0.16,-0.816 -0.16,-1.24 0,-0.78 0.636,-1.416 1.416,-1.416 0.06,0 0.108,0.024 0.164,0.032 0.056,-0.004 0.104,-0.032 0.164,-0.032 0.78,0 1.416,0.636 1.416,1.416 0,0.424 -0.1,0.828 -0.16,1.24 0.82,4.088 5.544,7.244 11.288,7.244 6.316,0 11.456,-3.804 11.456,-8.484 0,-0.78 0.636,-1.416 1.416,-1.416 0.78,0 1.416,0.636 1.416,1.416 0,4.68 5.14,8.484 11.456,8.484 6.16,0 11.168,-3.628 11.412,-8.148 -0.004,-0.112 -0.044,-0.22 -0.044,-0.336 0,-0.78 0.636,-1.416 1.416,-1.416 0.016,0 0.028,0.008 0.044,0.008 0.016,0 0.028,-0.008 0.044,-0.008 0.78,0 1.416,0.636 1.416,1.416 0,0.116 -0.04,0.22 -0.044,0.336 z m -73.104,-58.672 -1.672,10.836 65.232,10.076 1.676,-10.84 z m -7.076,-3.384 6.368,0.984 8.828,-7.336 -6.412,-1.06 -8.7,7.232 z m 3.764,-8.24 -2.588,5.68 6.128,-5.096 z m 8.296,-18.18 -7.812,17.116 4.204,0.692 0.028,-0.024 c 0.024,0.024 0.076,0.02 0.1,0.044 l 70.5,11.632 -2.384,-19.48 -3.536,-0.548 -51.404,-7.94 v 0.004 z m 35.24,-10.34 -24.192,7.724 -0.632,1.924 44.352,6.852 -0.028,-2.712 z m -4.06,-2.868 -18.604,5.936 -1.088,3.324 22.592,-7.212 z m -1.164,-0.824 -12.356,-8.736 -4.648,14.164 z m 4.74,-1.512 -15.8,-11.172 -0.928,2.816 13.344,9.436 z m 5.416,2.436 14.34,-4.576 -0.032,-2.964 -17.208,5.492 z m 1.164,0.824 13.336,9.428 -0.144,-13.64 z m -5.9,0.688 3.384,-1.08 -2.9,-2.048 -3.384,1.08 z m 4.544,-0.256 -3.384,1.08 18.128,12.816 -0.036,-3.496 z m -0.108,-29.76 -18.468,7.428 -2.08,6.34 16.788,11.868 18.356,-5.86 -0.08,-7.82 z m -3.356,-2.764 -13.556,5.452 -1.092,3.328 17.004,-6.84 z m -1,-0.82 -8.264,-6.808 -3.828,11.672 z m 4.032,-1.624 -11.02,-9.072 -0.896,2.732 9.084,7.48 z m 1.196,-0.484 13.4,-5.388 -0.056,-5.236 -23.692,-3.656 -1.488,4.532 z m 3.352,2.764 10.088,-4.056 -0.032,-2.876 -12.412,4.992 z m 1,0.824 9.22,7.596 -0.12,-11.256 z m -5.028,0.796 2.832,-1.14 -2.356,-1.94 -2.832,1.14 z m 3.832,-0.316 -2.836,1.14 13.304,10.956 -0.036,-3.504 z m -20.692,-27.064 -22.356,68.132 7.296,1.128 20.692,-63.072 27.496,4.244 0.008,0.96 0.696,65.416 7.292,1.128 -0.76,-71.712 z m 5.768,-34.368 -4.964,32.188 39.46,6.092 5.08,-32.876 c 0.404,-2.608 -1.396,-5.056 -4,-5.46 l -13.832,-2.072 -0.168,1.256 c 2.948,0.656 5.996,1.788 6.836,2.816 0.236,0.184 0.424,0.468 0.472,0.768 0.168,1.036 -0.396,11.168 -0.464,12.32 -0.18,1.98 -0.072,5.044 0.728,5.736 1.364,1.18 2.736,2.456 3.2,4.008 0.432,1.448 0.052,4.996 0.004,5.396 l -0.056,0.476 -0.472,0.028 c -0.044,0.004 -0.352,0.02 -0.94,0.02 -1.684,0 -5.712,-0.148 -12.576,-1.132 -0.288,1.26 -1.364,2.16 -2.596,2.16 -0.136,0 -0.264,-0.008 -0.396,-0.032 -1.388,-0.216 -2.32,-1.508 -2.208,-2.932 -9.216,-1.528 -13.06,-2.948 -13.224,-3.012 l -0.444,-0.172 0.092,-0.468 c 0.072,-0.392 0.78,-3.9 1.632,-5.144 0.912,-1.336 2.604,-2.14 4.256,-2.852 0.972,-0.424 2,-3.316 2.416,-5.232 0.288,-1.14 2.808,-10.972 3.272,-11.908 0.128,-0.252 0.352,-0.444 0.688,-0.6 0.984,-0.7 3.664,-0.896 6.58,-0.664 l 0.184,-1.384 -12.304,-1.9 c -1.456,-0.212 -2.896,0.128 -4.076,0.992 -1.184,0.864 -1.956,2.14 -2.18,3.584 z m 17.172,29.404 c -0.264,-0.044 -0.504,-0.072 -0.776,-0.116 -0.244,-0.032 -1.16,-0.176 -1.408,-0.216 -0.276,-0.04 -0.504,-0.084 -0.772,-0.124 -0.016,0.8 0.5,1.512 1.264,1.632 0.732,0.128 1.464,-0.404 1.692,-1.176 z m -0.608,-1.236 c 8.604,1.332 13.268,1.444 14.704,1.388 0.04,-0.432 0.076,-0.996 0.104,-1.576 -0.016,-0.028 -0.044,-0.044 -0.056,-0.076 -13.448,-0.932 -16.788,-1.536 -30.128,-4.652 -0.02,0.028 -0.052,0.024 -0.076,0.048 -0.148,0.568 -0.284,1.12 -0.376,1.548 1.352,0.444 5.824,1.78 14.428,3.108 0.248,0.04 1.152,0.176 1.4,0.212 z m 3.024,-26.44 C 144.217,8.578 143.837,8.35 143.577,7.994 143.325,7.642 143.213,7.21 143.273,6.778 l 0.004,-0.044 c -2.936,-0.24 -5.132,0.024 -5.868,0.536 -0.212,0.108 -0.248,0.148 -0.248,0.148 -0.296,0.6 -2.1,7.46 -3.168,11.64 -0.188,0.848 -1.224,5.212 -3.08,6.008 -1.5,0.648 -3.02,1.368 -3.764,2.452 -0.22,0.316 -0.436,0.904 -0.644,1.544 13.248,3.092 16.604,3.696 29.948,4.624 0,-0.672 -0.032,-1.3 -0.144,-1.668 -0.38,-1.256 -1.616,-2.404 -2.856,-3.476 -1.528,-1.32 -1.196,-5.792 -1.116,-6.676 0.24,-4.284 0.588,-11.36 0.48,-12.06 -0.004,0 -0.036,-0.056 -0.152,-0.152 -0.656,-0.784 -3.236,-1.9 -6.184,-2.552 l -0.012,0.096 c -0.112,0.836 -0.812,1.444 -1.616,1.452 -0.068,0 -0.132,-0.004 -0.204,-0.012 z m 0.316,-5.892 -0.56,4.18 c -0.02,0.148 0.012,0.284 0.092,0.396 0.076,0.104 0.184,0.172 0.304,0.188 0.26,0.04 0.504,-0.176 0.544,-0.456 l 0.564,-4.18 c 0.02,-0.152 -0.016,-0.292 -0.104,-0.404 -0.072,-0.096 -0.18,-0.16 -0.296,-0.176 -0.112,-0.02 -0.24,0.012 -0.336,0.092 -0.116,0.08 -0.188,0.216 -0.208,0.36 z m 11.56,138.356 -8.212,6.824 6.576,1.016 8.14,-6.768 z m -7.784,-1.288 -8.296,6.896 6.368,0.984 8.228,-6.84 z m -7.872,-1.3 -8.372,6.968 6.448,0.996 8.312,-6.908 z m -8.108,-1.336 -8.468,7.036 6.704,1.036 8.388,-6.98 z m -7.948,-1.312 -8.612,7.1 6.588,1.016 8.48,-7.052 z m -8.116,-1.34 -8.672,7.176 6.676,1.032 8.624,-7.116 z m -17.888,5.752 8.964,-7.224 -7.068,-1.168 -8.812,7.324 z m 10.468,-6.972 -8.964,7.208 6.212,0.96 8.688,-7.188 z m 54.972,17.08 -0.864,-7.068 -7.156,5.828 z m 76.28,47.912 c 0.78,0 1.416,0.64 1.448,1.424 0,6.24 -6.412,11.32 -14.292,11.32 -5.892,0 -10.96,-2.84 -13.144,-6.88 -2.188,4.04 -7.252,6.88 -13.144,6.88 -5.692,0 -10.58,-2.668 -12.876,-6.492 -2.3,3.824 -7.184,6.492 -12.876,6.492 -1.676,0 -3.26,-0.272 -4.756,-0.692 -0.036,0.016 -0.08,0.024 -0.116,0.04 l -0.016,-0.072 c -3.496,-1.016 -6.336,-3.068 -7.944,-5.7 -2.316,3.788 -7.176,6.428 -12.832,6.428 -5.692,0 -10.58,-2.668 -12.876,-6.492 -2.3,3.824 -7.184,6.492 -12.876,6.492 -5.568,0 -10.356,-2.56 -12.712,-6.252 -2.36,3.692 -7.144,6.252 -12.712,6.252 -5.692,0 -10.58,-2.668 -12.876,-6.492 -2.3,3.824 -7.184,6.492 -12.876,6.492 -5.892,0 -10.96,-2.84 -13.144,-6.88 -2.188,4.04 -7.252,6.88 -13.144,6.88 -5.692,0 -10.58,-2.668 -12.876,-6.492 -2.3,3.824 -7.184,6.492 -12.876,6.492 -7.876,0 -14.292,-5.076 -14.292,-11.32 0,-0.78 0.636,-1.416 1.416,-1.416 0.78,0 1.416,0.636 1.416,1.416 0,4.68 5.14,8.484 11.456,8.484 6.316,0 11.456,-3.804 11.456,-8.484 0,-0.78 0.636,-1.416 1.416,-1.416 0.78,0 1.416,0.636 1.416,1.416 0,4.68 5.14,8.484 11.456,8.484 0.544,0 1.064,-0.064 1.588,-0.12 2.448,-7.52 7.488,-16.296 7.748,-16.74 l 23.9,-40.584 8.324,1.284 1.672,-10.836 -9.26,-1.428 0.448,-0.984 c -0.004,0 -0.012,0 -0.016,0 l 0.024,-0.02 13.288,-29.12 23.268,-70.92 0.112,0.016 4.968,-32.188 c 0.32,-2.048 1.412,-3.848 3.084,-5.068 1.668,-1.224 3.72,-1.728 5.756,-1.408 l 12.384,1.912 c 0.112,-0.2 0.26,-0.38 0.444,-0.52 0.336,-0.256 0.74,-0.372 1.176,-0.316 0.412,0.052 0.788,0.268 1.044,0.608 0.168,0.22 0.256,0.48 0.3,0.748 l 13.968,2.092 c 3.844,0.596 6.488,4.204 5.9,8.048 l -5.076,32.876 0.112,0.016 0.008,0.96 0.776,73.048 0.076,0.012 4.1,33.504 -9.412,-1.452 -1.676,10.84 8.324,1.284 10.208,44.344 c 0.436,0.04 0.868,0.1 1.32,0.1 6.316,0 11.456,-3.804 11.456,-8.484 0,-0.78 0.636,-1.416 1.416,-1.416 0.78,0 1.416,0.636 1.416,1.416 0,4.68 5.14,8.484 11.456,8.484 6.316,0 11.456,-3.804 11.456,-8.484 0,-0.78 0.636,-1.416 1.416,-1.416 0.096,0 0.18,0.04 0.268,0.056 0.092,-0.02 0.172,-0.056 0.268,-0.056 0.78,0 1.416,0.636 1.416,1.416 0,4.68 5.14,8.484 11.456,8.484 6.316,0 11.456,-3.804 11.456,-8.484 0,-0.78 0.636,-1.416 1.416,-1.416 z"
         id="path8" /><path
         d="m 207.313,225.07 c -0.312,0 -0.568,0.252 -0.568,0.568 0,2.416 -2.632,4.384 -5.872,4.384 -3.24,0 -5.872,-1.964 -5.872,-4.384 0,-0.312 -0.252,-0.568 -0.568,-0.568 -0.316,0 -0.568,0.252 -0.568,0.568 0,2.416 -2.632,4.384 -5.872,4.384 -3.24,0 -5.872,-1.964 -5.872,-4.384 0,-0.312 -0.252,-0.568 -0.568,-0.568 -0.316,0 -0.568,0.252 -0.568,0.568 0,3.044 3.14,5.516 7.004,5.516 2.884,0 5.364,-1.38 6.436,-3.348 1.072,1.968 3.552,3.348 6.436,3.348 3.864,0 7.004,-2.472 7.004,-5.516 0.012,-0.316 -0.24,-0.568 -0.552,-0.568 z"
         id="path10" /><path
         d="m 165.333,242.606 c -0.312,0 -0.568,0.252 -0.568,0.568 0,2.416 -2.632,4.384 -5.872,4.384 -3.24,0 -5.872,-1.964 -5.872,-4.384 0,-0.312 -0.252,-0.568 -0.568,-0.568 -0.316,0 -0.568,0.252 -0.568,0.568 0,2.416 -2.632,4.384 -5.872,4.384 -3.24,0 -5.872,-1.964 -5.872,-4.384 0,-0.312 -0.252,-0.568 -0.568,-0.568 -0.316,0 -0.568,0.252 -0.568,0.568 0,3.044 3.14,5.516 7.004,5.516 2.884,0 5.364,-1.38 6.436,-3.348 1.072,1.968 3.552,3.348 6.436,3.348 3.864,0 7.004,-2.472 7.004,-5.516 0.012,-0.316 -0.24,-0.568 -0.552,-0.568 z"
         id="path12" /></g></g></g></svg>
