<?xml version="1.0" encoding="iso-8859-1"?>
<!-- Generator: Adobe Illustrator 19.0.0, SVG Export Plug-In . SVG Version: 6.00 Build 0)  -->
<svg version="1.1" id="Layer_1" xmlns="http://www.w3.org/2000/svg" xmlns:xlink="http://www.w3.org/1999/xlink" x="0px" y="0px"
	 viewBox="0 0 248.69 248.69" style="enable-background:new 0 0 248.69 248.69;" xml:space="preserve">
<g>
	<g>
		<g>
			<path d="M52.889,225.07c-0.312,0-0.568,0.252-0.568,0.568c0,2.416-2.632,4.384-5.872,4.384s-5.872-1.964-5.872-4.384
				c0-0.312-0.252-0.568-0.568-0.568s-0.568,0.252-0.568,0.568c0,2.416-2.632,4.384-5.872,4.384s-5.872-1.964-5.872-4.384
				c0-0.312-0.252-0.568-0.568-0.568c-0.316,0-0.568,0.252-0.568,0.568c0,3.044,3.14,5.516,7.004,5.516
				c2.884,0,5.364-1.38,6.436-3.348c1.072,1.968,3.552,3.348,6.436,3.348c3.864,0,7.004-2.472,7.004-5.516
				C53.457,225.322,53.201,225.07,52.889,225.07z"/>
			<path d="M90.053,241.258c-0.312,0-0.568,0.252-0.568,0.568c0,2.416-2.632,4.384-5.872,4.384s-5.872-1.964-5.872-4.384
				c0-0.312-0.252-0.568-0.568-0.568s-0.568,0.252-0.568,0.568c0,2.416-2.632,4.384-5.868,4.384c-3.24,0-5.872-1.964-5.872-4.384
				c0-0.312-0.252-0.568-0.568-0.568c-0.316,0-0.568,0.252-0.568,0.568c0,3.044,3.14,5.516,7.004,5.516
				c2.884,0,5.364-1.38,6.432-3.348c1.072,1.968,3.552,3.348,6.436,3.348c3.864,0,7.004-2.472,7.004-5.516
				C90.621,241.51,90.365,241.258,90.053,241.258z"/>
			<path d="M127.693,222.594c-0.312,0-0.568,0.252-0.568,0.568c0,2.416-2.632,4.384-5.872,4.384c-3.24,0-5.872-1.964-5.872-4.384
				c0-0.312-0.252-0.568-0.568-0.568c-0.316,0-0.568,0.252-0.568,0.568c0,2.416-2.632,4.384-5.872,4.384s-5.872-1.964-5.872-4.384
				c0-0.312-0.252-0.568-0.568-0.568s-0.568,0.252-0.568,0.568c0,3.044,3.14,5.516,7.004,5.516c2.884,0,5.364-1.38,6.436-3.348
				c1.072,1.968,3.552,3.348,6.436,3.348c3.864,0,7.004-2.472,7.004-5.516C128.261,222.846,128.005,222.594,127.693,222.594z"/>
			<path d="M240.525,198.298c-0.78,0-1.416,0.636-1.416,1.416c0,4.68-5.14,8.484-11.456,8.484s-11.456-3.804-11.456-8.484
				c0-0.78-0.636-1.416-1.416-1.416c-0.096,0-0.176,0.036-0.268,0.056c-0.088-0.016-0.172-0.056-0.268-0.056
				c-0.78,0-1.416,0.636-1.416,1.416c0,4.68-5.14,8.484-11.456,8.484s-11.456-3.804-11.456-8.484c0-0.78-0.636-1.416-1.416-1.416
				c-0.78,0-1.416,0.636-1.416,1.416c0,4.68-5.14,8.484-11.456,8.484c-0.452,0-0.884-0.06-1.32-0.1l-10.208-44.344l-8.324-1.284
				l1.676-10.84l9.412,1.452l-4.1-33.504l-0.076-0.012l-0.776-73.048l-0.008-0.96l-0.112-0.016l5.076-32.876
				c0.588-3.844-2.056-7.452-5.9-8.048l-13.968-2.092c-0.044-0.268-0.132-0.528-0.3-0.748c-0.256-0.34-0.632-0.556-1.044-0.608
				c-0.436-0.056-0.84,0.06-1.176,0.316c-0.184,0.14-0.332,0.32-0.444,0.52l-12.384-1.912c-2.036-0.32-4.088,0.184-5.756,1.408
				c-1.672,1.22-2.764,3.02-3.084,5.068l-4.968,32.188l-0.112-0.016l-23.268,70.92l-13.288,29.12l-0.024,0.02
				c0.004,0,0.012,0,0.016,0l-0.448,0.984l9.26,1.428l-1.672,10.836l-8.324-1.284l-23.9,40.584c-0.26,0.444-5.3,9.22-7.748,16.74
				c-0.524,0.056-1.044,0.12-1.588,0.12c-6.316,0-11.456-3.804-11.456-8.484c0-0.78-0.636-1.416-1.416-1.416
				c-0.78,0-1.416,0.636-1.416,1.416c0,4.68-5.14,8.484-11.456,8.484s-11.456-3.804-11.456-8.484c0-0.78-0.636-1.416-1.416-1.416
				c-0.78,0-1.416,0.636-1.416,1.416c0,6.244,6.416,11.32,14.292,11.32c5.692,0,10.576-2.668,12.876-6.492
				c2.296,3.824,7.184,6.492,12.876,6.492c5.892,0,10.956-2.84,13.144-6.88c2.184,4.04,7.252,6.88,13.144,6.88
				c5.692,0,10.576-2.668,12.876-6.492c2.296,3.824,7.184,6.492,12.876,6.492c5.568,0,10.352-2.56,12.712-6.252
				c2.356,3.692,7.144,6.252,12.712,6.252c5.692,0,10.576-2.668,12.876-6.492c2.296,3.824,7.184,6.492,12.876,6.492
				c5.656,0,10.516-2.64,12.832-6.428c1.608,2.632,4.448,4.684,7.944,5.7l0.016,0.072c0.036-0.016,0.08-0.024,0.116-0.04
				c1.496,0.42,3.08,0.692,4.756,0.692c5.692,0,10.576-2.668,12.876-6.492c2.296,3.824,7.184,6.492,12.876,6.492
				c5.892,0,10.956-2.84,13.144-6.88c2.184,4.04,7.252,6.88,13.144,6.88c7.88,0,14.292-5.08,14.292-11.32
				C241.941,198.938,241.305,198.298,240.525,198.298z M164.245,150.386l-8.02-1.24l7.156-5.828L164.245,150.386z M109.273,133.306
				l5.936,0.98l-8.688,7.188l-6.212-0.96L109.273,133.306z M98.805,140.278l-6.916-1.068l8.812-7.324l7.068,1.168L98.805,140.278z
				 M116.693,134.526l6.628,1.092l-8.624,7.116l-6.676-1.032L116.693,134.526z M124.809,135.866l6.456,1.064l-8.48,7.052
				l-6.588-1.016L124.809,135.866z M132.757,137.178l6.624,1.092l-8.388,6.98l-6.704-1.036L132.757,137.178z M140.865,138.514
				l6.388,1.056l-8.312,6.908l-6.448-0.996L140.865,138.514z M148.737,139.814l6.3,1.04l-8.228,6.84l-6.368-0.984L148.737,139.814z
				 M156.521,141.102l6.504,1.072l-8.14,6.768l-6.576-1.016L156.521,141.102z M144.961,2.746c0.02-0.144,0.092-0.28,0.208-0.36
				c0.096-0.08,0.224-0.112,0.336-0.092c0.116,0.016,0.224,0.08,0.296,0.176c0.088,0.112,0.124,0.252,0.104,0.404l-0.564,4.18
				c-0.04,0.28-0.284,0.496-0.544,0.456c-0.12-0.016-0.228-0.084-0.304-0.188c-0.08-0.112-0.112-0.248-0.092-0.396L144.961,2.746z
				 M144.645,8.638h0.004c0.072,0.008,0.136,0.012,0.204,0.012c0.804-0.008,1.504-0.616,1.616-1.452l0.012-0.096
				c2.948,0.652,5.528,1.768,6.184,2.552c0.116,0.096,0.148,0.152,0.152,0.152c0.108,0.7-0.24,7.776-0.48,12.06
				c-0.08,0.884-0.412,5.356,1.116,6.676c1.24,1.072,2.476,2.22,2.856,3.476c0.112,0.368,0.144,0.996,0.144,1.668
				c-13.344-0.928-16.7-1.532-29.948-4.624c0.208-0.64,0.424-1.228,0.644-1.544c0.744-1.084,2.264-1.804,3.764-2.452
				c1.856-0.796,2.892-5.16,3.08-6.008c1.068-4.18,2.872-11.04,3.168-11.64c0,0,0.036-0.04,0.248-0.148
				c0.736-0.512,2.932-0.776,5.868-0.536l-0.004,0.044c-0.06,0.432,0.052,0.864,0.304,1.216
				C143.837,8.35,144.217,8.578,144.645,8.638z M141.621,35.078c-0.248-0.036-1.152-0.172-1.4-0.212
				c-8.604-1.328-13.076-2.664-14.428-3.108c0.092-0.428,0.228-0.98,0.376-1.548c0.024-0.024,0.056-0.02,0.076-0.048
				c13.34,3.116,16.68,3.72,30.128,4.652c0.012,0.032,0.04,0.048,0.056,0.076c-0.028,0.58-0.064,1.144-0.104,1.576
				C154.889,36.522,150.225,36.41,141.621,35.078z M142.229,36.314c-0.228,0.772-0.96,1.304-1.692,1.176
				c-0.764-0.12-1.28-0.832-1.264-1.632c0.268,0.04,0.496,0.084,0.772,0.124c0.248,0.04,1.164,0.184,1.408,0.216
				C141.725,36.242,141.965,36.27,142.229,36.314z M125.057,6.91c0.224-1.444,0.996-2.72,2.18-3.584
				c1.18-0.864,2.62-1.204,4.076-0.992l12.304,1.9l-0.184,1.384c-2.916-0.232-5.596-0.036-6.58,0.664
				c-0.336,0.156-0.56,0.348-0.688,0.6c-0.464,0.936-2.984,10.768-3.272,11.908c-0.416,1.916-1.444,4.808-2.416,5.232
				c-1.652,0.712-3.344,1.516-4.256,2.852c-0.852,1.244-1.56,4.752-1.632,5.144l-0.092,0.468l0.444,0.172
				c0.164,0.064,4.008,1.484,13.224,3.012c-0.112,1.424,0.82,2.716,2.208,2.932c0.132,0.024,0.26,0.032,0.396,0.032
				c1.232,0,2.308-0.9,2.596-2.16c6.864,0.984,10.892,1.132,12.576,1.132c0.588,0,0.896-0.016,0.94-0.02l0.472-0.028l0.056-0.476
				c0.048-0.4,0.428-3.948-0.004-5.396c-0.464-1.552-1.836-2.828-3.2-4.008c-0.8-0.692-0.908-3.756-0.728-5.736
				c0.068-1.152,0.632-11.284,0.464-12.32c-0.048-0.3-0.236-0.584-0.472-0.768c-0.84-1.028-3.888-2.16-6.836-2.816l0.168-1.256
				l13.832,2.072c2.604,0.404,4.404,2.852,4,5.46l-5.08,32.876l-39.46-6.092L125.057,6.91z M119.289,41.278l40.364,6.224
				l0.76,71.712l-7.292-1.128l-0.696-65.416l-0.008-0.96l-27.496-4.244l-20.692,63.072l-7.296-1.128L119.289,41.278z
				 M139.981,68.342l10.432,8.592l0.036,3.504l-13.304-10.956L139.981,68.342z M136.149,68.658l-2.356-1.94l2.832-1.14l2.356,1.94
				L136.149,68.658z M141.177,67.862l9.1-3.66l0.12,11.256L141.177,67.862z M140.177,67.038l-2.356-1.94l12.412-4.992l0.032,2.876
				L140.177,67.038z M136.825,64.274l-11.836-9.748l1.488-4.532l23.692,3.656l0.056,5.236L136.825,64.274z M135.629,64.758
				l-2.832,1.14l-9.084-7.48l0.896-2.732L135.629,64.758z M131.597,66.382l-12.092,4.864l3.828-11.672L131.597,66.382z
				 M132.597,67.202l2.356,1.94l-17.004,6.84l1.092-3.328L132.597,67.202z M135.953,69.966l14.516,11.956l0.08,7.82l-18.356,5.86
				l-16.788-11.868l2.08-6.34L135.953,69.966z M136.061,99.726l14.708,10.4l0.036,3.496l-18.128-12.816L136.061,99.726z
				 M131.517,99.982l-2.9-2.048l3.384-1.08l2.9,2.048L131.517,99.982z M137.417,99.294l13.192-4.212l0.144,13.64L137.417,99.294z
				 M136.253,98.47l-2.9-2.048l17.208-5.492l0.032,2.964L136.253,98.47z M130.837,96.034l-3.384,1.08l-13.344-9.436l0.928-2.816
				L130.837,96.034z M126.097,97.546l-17.004,5.428l4.648-14.164L126.097,97.546z M127.261,98.37l2.9,2.048l-22.592,7.212
				l1.088-3.324L127.261,98.37z M131.321,101.238l19.5,13.788l0.028,2.712l-44.352-6.852l0.632-1.924L131.321,101.238z
				 M96.081,111.578l9.696,1.496v-0.004l51.404,7.94l3.536,0.548l2.384,19.48l-70.5-11.632c-0.024-0.024-0.076-0.02-0.1-0.044
				l-0.028,0.024l-4.204-0.692L96.081,111.578z M87.785,129.758l3.54,0.584l-6.128,5.096L87.785,129.758z M84.021,137.998
				l0.084-0.18l8.7-7.232l6.412,1.06l-8.828,7.336L84.021,137.998z M91.097,141.382l65.236,10.072l-1.676,10.84l-65.232-10.076
				L91.097,141.382z M164.201,200.054c0.004-0.116,0.044-0.22,0.044-0.336c0-0.78-0.636-1.416-1.416-1.416
				c-0.016,0-0.028,0.008-0.044,0.008s-0.028-0.008-0.044-0.008c-0.78,0-1.416,0.636-1.416,1.416c0,0.116,0.04,0.224,0.044,0.336
				c-0.244,4.52-5.252,8.148-11.412,8.148c-6.316,0-11.456-3.804-11.456-8.484c0-0.78-0.636-1.416-1.416-1.416
				c-0.78,0-1.416,0.636-1.416,1.416c0,4.68-5.14,8.484-11.456,8.484c-5.744,0-10.468-3.156-11.288-7.244
				c0.06-0.412,0.16-0.816,0.16-1.24c0-0.78-0.636-1.416-1.416-1.416c-0.06,0-0.108,0.028-0.164,0.032
				c-0.056-0.008-0.104-0.032-0.164-0.032c-0.78,0-1.416,0.636-1.416,1.416c0,0.424,0.1,0.828,0.16,1.24
				c-0.82,4.088-5.544,7.244-11.288,7.244c-6.316,0-11.456-3.804-11.456-8.484c0-0.78-0.636-1.416-1.416-1.416
				c-0.78,0-1.416,0.636-1.416,1.416c0,4.68-5.14,8.484-11.456,8.484s-11.456-3.804-11.456-8.484c0-0.78-0.636-1.416-1.416-1.416
				c-0.096,0-0.176,0.036-0.268,0.056c-0.088-0.016-0.172-0.056-0.268-0.056c-0.78,0-1.416,0.636-1.416,1.416
				c0,2.98-2.092,5.592-5.236,7.108c2.516-6.5,6.492-13.392,6.54-13.476l22.528-38.248l78.8,12.164l9.144,39.8
				C166.645,205.65,164.365,203.066,164.201,200.054z"/>
			<path d="M207.313,225.07c-0.312,0-0.568,0.252-0.568,0.568c0,2.416-2.632,4.384-5.872,4.384c-3.24,0-5.872-1.964-5.872-4.384
				c0-0.312-0.252-0.568-0.568-0.568s-0.568,0.252-0.568,0.568c0,2.416-2.632,4.384-5.872,4.384c-3.24,0-5.872-1.964-5.872-4.384
				c0-0.312-0.252-0.568-0.568-0.568s-0.568,0.252-0.568,0.568c0,3.044,3.14,5.516,7.004,5.516c2.884,0,5.364-1.38,6.436-3.348
				c1.072,1.968,3.552,3.348,6.436,3.348c3.864,0,7.004-2.472,7.004-5.516C207.877,225.322,207.625,225.07,207.313,225.07z"/>
			<path d="M165.333,242.606c-0.312,0-0.568,0.252-0.568,0.568c0,2.416-2.632,4.384-5.872,4.384c-3.24,0-5.872-1.964-5.872-4.384
				c0-0.312-0.252-0.568-0.568-0.568s-0.568,0.252-0.568,0.568c0,2.416-2.632,4.384-5.872,4.384c-3.24,0-5.872-1.964-5.872-4.384
				c0-0.312-0.252-0.568-0.568-0.568s-0.568,0.252-0.568,0.568c0,3.044,3.14,5.516,7.004,5.516c2.884,0,5.364-1.38,6.436-3.348
				c1.072,1.968,3.552,3.348,6.436,3.348c3.864,0,7.004-2.472,7.004-5.516C165.897,242.858,165.645,242.606,165.333,242.606z"/>
		</g>
	</g>
</g>
<g>
</g>
<g>
</g>
<g>
</g>
<g>
</g>
<g>
</g>
<g>
</g>
<g>
</g>
<g>
</g>
<g>
</g>
<g>
</g>
<g>
</g>
<g>
</g>
<g>
</g>
<g>
</g>
<g>
</g>
</svg>
